<svg id="eY6RMLszSd91" xmlns="http://www.w3.org/2000/svg" xmlns:xlink="http://www.w3.org/1999/xlink" viewBox="0 0 300 300" shape-rendering="geometricPrecision" text-rendering="geometricPrecision"><path d="M265.89798,103.17418c25.86119,64.00868-5.06347,136.86262-69.07216,162.72381s-136.86262-5.06347-162.72381-69.07216s5.06347-136.86262,69.07216-162.72381s136.86262,5.06347,162.72381,69.07216ZM69.00743,166.5451c-7.68104,3.10334-11.392,11.84582-8.28866,19.52686s11.84582,11.392,19.52686,8.28866s11.392-11.84582,8.28866-19.52686-11.84582-11.392-19.52686-8.28866Zm78.64555-47.95288c-7.68104,3.10334-11.392,11.84582-8.28866,19.52686s11.84582,11.392,19.52686,8.28866s11.392-11.84582,8.28866-19.52686-11.84582-11.392-19.52686-8.28866ZM103.29414,60.11733c-7.68104,3.10334-11.392,11.84582-8.28866,19.52686s11.84582,11.392,19.52686,8.28866s11.392-11.84582,8.28866-19.52686-11.84582-11.392-19.52686-8.28866Zm36.79058,171.14389c-7.68104,3.10334-11.392,11.84582-8.28866,19.52686s11.84582,11.392,19.52686,8.28866s11.392-11.84582,8.28866-19.52686-11.84582-11.392-19.52686-8.28866Zm83.27644-59.54318c-7.68104,3.10334-11.392,11.84582-8.28866,19.52686s11.84582,11.392,19.52686,8.28866s11.392-11.84582,8.28866-19.52686-11.84582-11.392-19.52686-8.28866Zm21.27271-39.57798c-3.84053,1.55167-5.696,5.9229-4.14433,9.76343s5.9229,5.696,9.76343,4.14433s5.696-5.9229,4.14433-9.76343-5.9229-5.696-9.76343-4.14433ZM124.76372,107.55903c-3.84053,1.55167-5.696,5.9229-4.14433,9.76343s5.9229,5.696,9.76343,4.14433s5.696-5.9229,4.14433-9.76343-5.9229-5.696-9.76343-4.14433Zm54.76408,95.50384c-3.84053,1.55167-5.696,5.9229-4.14433,9.76343s5.9229,5.696,9.76343,4.14433s5.696-5.9229,4.14433-9.76343-5.9229-5.696-9.76343-4.14433Zm26.53174-89.03983c-2.04828.82756-3.03787,3.15888-2.21031,5.20716s3.15888,3.03787,5.20716,2.21031s3.03787-3.15888,2.21031-5.20716-3.15888-3.03787-5.20716-2.21031ZM174.24896,56.64482c-2.04828.82756-3.03787,3.15888-2.21031,5.20716s3.15888,3.03787,5.20716,2.21031s3.03787-3.15888,2.21031-5.20716-3.15888-3.03787-5.20716-2.21031ZM111.29789,194.1003c-2.04828.82756-3.03787,3.15888-2.21031,5.20716s3.15888,3.03787,5.20716,2.21031s3.03787-3.15888,2.21031-5.20716-3.15888-3.03787-5.20716-2.21031ZM40.92263,132.80475c-2.04828.82756-3.03787,3.15888-2.21031,5.20716s3.15888,3.03787,5.20716,2.21031s3.03787-3.15888,2.21031-5.20716-3.15888-3.03787-5.20716-2.21031ZM204.32582,74.91586c4.14214,0,7.5-3.35786,7.5-7.5s-3.35786-7.5-7.5-7.5-7.5,3.35786-7.5,7.5s3.35786,7.5,7.5,7.5Zm-18.5,114.90996c2.20914,0,4-1.79086,4-4s-1.79086-4-4-4-4,1.79086-4,4s1.79086,4,4,4Z" transform="translate(-18.149033 19.109117)" fill="#16161d" stroke-width="0"/><polygon points="6.138328,-15.166614 12.492532,-0.306092 26.700963,2.076903 16.419644,13.644206 18.846735,29.977498 6.138328,22.265964 -6.57008,29.977498 -4.142989,13.644206 -14.424307,2.076903 -0.215876,-0.306092 6.138328,-15.166614" transform="matrix(-1.176038 0.863418-.786555-1.071344 227.82223 37.82901)" fill="#16161d" stroke-width="0"/><polygon points="2.711222,-15.166614 8.006392,-2.782846 19.846751,-0.797017 11.278985,8.842402 13.301561,22.453478 2.711222,16.0272 -7.879118,22.453478 -5.856542,8.842402 -14.424307,-0.797017 -2.583948,-2.782846 2.711222,-15.166614" transform="matrix(-1.176038 0.863418-.786555-1.071344 260.243962 82.188933)" fill="#16161d" stroke-width="0"/><polygon points="0.997669,-15.166614 5.763322,-4.021223 16.419645,-2.233976 8.708656,6.441501 10.528974,18.69147 0.997669,12.907819 -8.533637,18.69147 -6.713319,6.441501 -14.424307,-2.233976 -3.767984,-4.021223 0.997669,-15.166614" transform="matrix(-1.176038 0.863418-.786555-1.071344 282.844792 50.200804)" fill="#16161d" stroke-width="0"/></svg>
