<svg id="eBEGSIjbydH1" xmlns="http://www.w3.org/2000/svg" xmlns:xlink="http://www.w3.org/1999/xlink" viewBox="0 0 300 300" shape-rendering="geometricPrecision" text-rendering="geometricPrecision"><ellipse rx="124.975892" ry="124.975892" transform="matrix(.715469 0 0 0.717326 136.654911 157.842407)" fill="#f8f8ff" stroke-width="0"/><g transform="matrix(.884418 0 0 0.921602 4.025648 19.602105)"><line x1="0" y1="-15.188042" x2="0" y2="15.188043" transform="matrix(-1 0 0 0.980936 150 25.081967)" fill="none" stroke="#f8f8ff" stroke-width="15" stroke-linecap="round"/><line x1="0" y1="-15.188042" x2="0" y2="15.188043" transform="matrix(-1 0 0 0.980936 150 275.719389)" fill="none" stroke="#f8f8ff" stroke-width="15" stroke-linecap="round"/><line x1="0" y1="-15.188042" x2="0" y2="15.188043" transform="matrix(0-1-.980936 0 275.554484 150)" fill="none" stroke="#f8f8ff" stroke-width="15" stroke-linecap="round"/><line x1="0" y1="-15.188042" x2="0" y2="15.188043" transform="matrix(0-1-.980936 0 25.024108 150)" fill="none" stroke="#f8f8ff" stroke-width="15" stroke-linecap="round"/><line x1="0" y1="-15.188042" x2="0" y2="15.188043" transform="matrix(.707107-.707107-.693626-.693626 239.416391 239.648472)" fill="none" stroke="#f8f8ff" stroke-width="15" stroke-linecap="round"/><line x1="0" y1="-15.188042" x2="0" y2="15.188043" transform="matrix(.707107-.707107-.693626-.693626 59.789777 62.521847)" fill="none" stroke="#f8f8ff" stroke-width="15" stroke-linecap="round"/><line x1="0" y1="-15.188042" x2="0" y2="15.188043" transform="matrix(-.707107-.707107-.693626 0.693626 60.58361 239.648471)" fill="none" stroke="#f8f8ff" stroke-width="15" stroke-linecap="round"/></g><g transform="matrix(.820018 0.331309-.345238 0.854494 65.339029-20.497723)"><line x1="0" y1="-15.188042" x2="0" y2="15.188043" transform="matrix(-1 0 0 0.980936 150 25.081967)" fill="none" stroke="#f8f8ff" stroke-width="5" stroke-linecap="square"/><line x1="0" y1="-15.188042" x2="0" y2="15.188043" transform="matrix(-1 0 0 0.980936 150 275.719389)" fill="none" stroke="#f8f8ff" stroke-width="5" stroke-linecap="square"/><line x1="0" y1="-15.188042" x2="0" y2="15.188043" transform="matrix(0-1-.980936 0 275.554484 150)" fill="none" stroke="#f8f8ff" stroke-width="5" stroke-linecap="square"/><line x1="0" y1="-15.188042" x2="0" y2="15.188043" transform="matrix(0-1-.980936 0 25.024108 150)" fill="none" stroke="#f8f8ff" stroke-width="5" stroke-linecap="square"/><line x1="0" y1="-15.188042" x2="0" y2="15.188043" transform="matrix(-.707107-.707107-.693626 0.693626 239.416391 60.351528)" fill="none" stroke="#f8f8ff" stroke-width="5" stroke-linecap="square"/><line x1="0" y1="-15.188042" x2="0" y2="15.188043" transform="matrix(.707107-.707107-.693626-.693626 239.416391 239.648472)" fill="none" stroke="#f8f8ff" stroke-width="5" stroke-linecap="square"/><line x1="0" y1="-15.188042" x2="0" y2="15.188043" transform="matrix(.707107-.707107-.693626-.693626 59.789777 62.521847)" fill="none" stroke="#f8f8ff" stroke-width="5" stroke-linecap="square"/><line x1="0" y1="-15.188042" x2="0" y2="15.188043" transform="matrix(-.707107-.707107-.693626 0.693626 60.58361 239.648471)" fill="none" stroke="#f8f8ff" stroke-width="5" stroke-linecap="square"/></g><path d="M273.41228,46.14536c10.66014-2.89288,21.64704,3.40372,24.53992,14.06386s-3.40372,21.64704-14.06386,24.53992c-2.85271.77415-5.72881.89022-8.46694.44069-1.70034,5.07037-6.20221,9.11901-12.02987,10.13899-4.99277.87385-9.82529-.67369-13.19608-3.77079-.79781,2.62636-3.08902,4.74239-6.07754,5.26545-4.1644.72887-8.10583-1.91139-8.80344-5.89717s2.11278-7.80777,6.27718-8.53664c1.42567-.24953,2.8252-.10418,4.07741.35483-.9047-7.68065,4.61675-14.87379,12.66997-16.28329.11011-.01927.22014-.03737.33009-.05429-.44961-9.17822,5.51004-17.75592,14.74318-20.26156h-.00002Z" transform="matrix(.9751 0.337238-.26479 0.765622 15.035899-121.255223)" fill="#f8f8ff" stroke-width="0"/><path d="M173.92727,39.3939c0-12.42641,10.07359-22.5,22.5-22.5c8.37807,0,15.68664,4.57912,19.55946,11.37112c2.45912-8.26074,10.1118-14.28443,19.17139-14.28443c6.62144,0,12.49133,3.21773,16.1313,8.17482c1.61811-3.34328,5.04298-5.64903,9.00638-5.64903c5.52285,0,10,4.47715,10,10s-4.47715,10-10,10c-1.89073,0-3.6589-.52473-5.16684-1.43651-.56567,10.53914-9.29062,18.91071-19.97084,18.91071-1.76572,0-3.47799-.22882-5.10879-.65842-.8963,7.42798-7.22154,13.18422-14.89121,13.18422-4.77505,0-9.02898-2.23121-11.77609-5.70795-2.19013.71112-4.52757,1.09545-6.95477,1.09545-12.42641,0-22.5-10.07359-22.5-22.5l.00001.00002Z" transform="matrix(1.117866-.005486 0.005873 1.196743-32.757378 29.583963)" fill="#f8f8ff" stroke-width="0"/><g transform="translate(.000001 0)"><path d="M162.060532,71.844642c-1.731215,19.817334,14.325424,34.987555,32.892947,29.383576c2.769807,4.280184,10.602433,7.604407,15.750457,6.463839" transform="translate(-.484528 0.646038)" fill="none" stroke="#16161d" stroke-width="4" stroke-linecap="round" stroke-linejoin="round"/><path d="M175.444382,51.699124c2.031705-1.299472,6.415057-2.750084,8.801631-2.813904" transform="translate(.13088 1.047034)" fill="none" stroke="#16161d" stroke-width="4" stroke-linecap="round"/></g></svg>
